<svg width="213" height="58" viewBox="0 0 213 58" fill="none" xmlns="http://www.w3.org/2000/svg">
<path d="M1 28H72" stroke="white" stroke-width="1.5" stroke-linecap="round" stroke-linejoin="round"/>
<circle cx="36.5" cy="28.5" r="27.75" stroke="white" stroke-width="1.5"/>
<path d="M123.506 58C139.238 58 152.113 45.0639 152.113 29.2231C152.113 13.2414 139.238 0.234818 123.538 0.234818C107.838 0.234818 95 13.2414 95 29.2231C95 45.0639 107.838 58 123.506 58ZM123.506 46.717C113.934 46.717 106.134 38.8154 106.134 29.155C106.134 19.4194 113.934 11.4849 123.506 11.4849C133.107 11.4849 140.942 19.4194 140.942 29.155C140.942 38.8154 133.107 46.717 123.506 46.717ZM212.386 0L186.129 36.6363L159.839 0H159.225V56.8259H170.261V32.6796L186.096 55.8984H186.166L201.966 32.6796V56.8259H213V0H212.386Z" fill="white"/>
</svg>
